<mxfile host="app.diagrams.net" modified="2024-05-24T13:12:26.099Z" agent="Mozilla/5.0 (X11; Linux x86_64) AppleWebKit/537.36 (KHTML, like Gecko) Chrome/125.0.0.0 Safari/537.36" etag="xmMJqlXeqNeDBNY-Um1y" version="24.3.1" type="device" pages="8">
  <diagram name="home-logged-out" id="bulOL5kOMfAnAHBKOur3">
    <mxGraphModel dx="1674" dy="799" grid="1" gridSize="10" guides="1" tooltips="1" connect="1" arrows="1" fold="1" page="1" pageScale="1" pageWidth="850" pageHeight="1100" math="0" shadow="0">
      <root>
        <mxCell id="0" />
        <mxCell id="1" parent="0" />
        <mxCell id="cRCH-ILLVMDY7oOqpRGy-1" value="&lt;font style=&quot;font-size: 16px;&quot;&gt;Portfolio&lt;/font&gt;" style="rounded=0;whiteSpace=wrap;html=1;" vertex="1" parent="1">
          <mxGeometry x="100" y="220" width="80" height="40" as="geometry" />
        </mxCell>
        <mxCell id="cRCH-ILLVMDY7oOqpRGy-2" value="&lt;font style=&quot;font-size: 14px;&quot;&gt;Home&lt;/font&gt;" style="rounded=0;whiteSpace=wrap;html=1;" vertex="1" parent="1">
          <mxGeometry x="180" y="220" width="80" height="40" as="geometry" />
        </mxCell>
        <mxCell id="cRCH-ILLVMDY7oOqpRGy-3" value="&lt;font style=&quot;font-size: 14px;&quot;&gt;Privacy&lt;/font&gt;" style="rounded=0;whiteSpace=wrap;html=1;" vertex="1" parent="1">
          <mxGeometry x="260" y="220" width="80" height="40" as="geometry" />
        </mxCell>
        <mxCell id="cRCH-ILLVMDY7oOqpRGy-4" value="" style="rounded=0;whiteSpace=wrap;html=1;" vertex="1" parent="1">
          <mxGeometry x="340" y="220" width="190" height="40" as="geometry" />
        </mxCell>
        <mxCell id="cRCH-ILLVMDY7oOqpRGy-5" value="&lt;font style=&quot;font-size: 14px;&quot;&gt;Log In&lt;/font&gt;" style="rounded=0;whiteSpace=wrap;html=1;" vertex="1" parent="1">
          <mxGeometry x="530" y="220" width="80" height="40" as="geometry" />
        </mxCell>
        <mxCell id="cRCH-ILLVMDY7oOqpRGy-6" value="" style="rounded=0;whiteSpace=wrap;html=1;" vertex="1" parent="1">
          <mxGeometry x="100" y="260" width="510" height="440" as="geometry" />
        </mxCell>
        <mxCell id="cRCH-ILLVMDY7oOqpRGy-7" value="&lt;font style=&quot;font-size: 18px;&quot;&gt;&lt;b&gt;Welcome!&lt;/b&gt;&lt;/font&gt;" style="text;html=1;align=center;verticalAlign=middle;whiteSpace=wrap;rounded=0;strokeColor=#000000;" vertex="1" parent="1">
          <mxGeometry x="110" y="270" width="300" height="30" as="geometry" />
        </mxCell>
        <mxCell id="cRCH-ILLVMDY7oOqpRGy-8" value="alt: photo of me" style="rounded=0;whiteSpace=wrap;html=1;" vertex="1" parent="1">
          <mxGeometry x="410" y="270" width="190" height="200" as="geometry" />
        </mxCell>
        <mxCell id="cRCH-ILLVMDY7oOqpRGy-9" value="&lt;font style=&quot;font-size: 12px;&quot;&gt;{{about_me}}&lt;/font&gt;" style="text;html=1;align=center;verticalAlign=middle;whiteSpace=wrap;rounded=0;shadow=0;strokeColor=#000000;" vertex="1" parent="1">
          <mxGeometry x="110" y="300" width="300" height="170" as="geometry" />
        </mxCell>
      </root>
    </mxGraphModel>
  </diagram>
  <diagram name="home-logged-in" id="xWxcdwDqmuHdGWmgv9Ij">
    <mxGraphModel dx="1674" dy="799" grid="1" gridSize="10" guides="1" tooltips="1" connect="1" arrows="1" fold="1" page="1" pageScale="1" pageWidth="850" pageHeight="1100" math="0" shadow="0">
      <root>
        <mxCell id="pSG9ePYmPneIMNXDhlYq-0" />
        <mxCell id="pSG9ePYmPneIMNXDhlYq-1" parent="pSG9ePYmPneIMNXDhlYq-0" />
        <mxCell id="pSG9ePYmPneIMNXDhlYq-2" value="&lt;font style=&quot;font-size: 16px;&quot;&gt;Portfolio&lt;/font&gt;" style="rounded=0;whiteSpace=wrap;html=1;" vertex="1" parent="pSG9ePYmPneIMNXDhlYq-1">
          <mxGeometry x="100" y="220" width="80" height="40" as="geometry" />
        </mxCell>
        <mxCell id="pSG9ePYmPneIMNXDhlYq-3" value="&lt;font style=&quot;font-size: 14px;&quot;&gt;Home&lt;/font&gt;" style="rounded=0;whiteSpace=wrap;html=1;" vertex="1" parent="pSG9ePYmPneIMNXDhlYq-1">
          <mxGeometry x="180" y="220" width="80" height="40" as="geometry" />
        </mxCell>
        <mxCell id="pSG9ePYmPneIMNXDhlYq-4" value="&lt;font style=&quot;font-size: 14px;&quot;&gt;Privacy&lt;/font&gt;" style="rounded=0;whiteSpace=wrap;html=1;" vertex="1" parent="pSG9ePYmPneIMNXDhlYq-1">
          <mxGeometry x="260" y="220" width="80" height="40" as="geometry" />
        </mxCell>
        <mxCell id="pSG9ePYmPneIMNXDhlYq-5" value="" style="rounded=0;whiteSpace=wrap;html=1;" vertex="1" parent="pSG9ePYmPneIMNXDhlYq-1">
          <mxGeometry x="340" y="220" width="190" height="40" as="geometry" />
        </mxCell>
        <mxCell id="pSG9ePYmPneIMNXDhlYq-6" value="&lt;font style=&quot;font-size: 14px;&quot;&gt;Log Out&lt;/font&gt;" style="rounded=0;whiteSpace=wrap;html=1;" vertex="1" parent="pSG9ePYmPneIMNXDhlYq-1">
          <mxGeometry x="530" y="220" width="80" height="40" as="geometry" />
        </mxCell>
        <mxCell id="pSG9ePYmPneIMNXDhlYq-7" value="" style="rounded=0;whiteSpace=wrap;html=1;" vertex="1" parent="pSG9ePYmPneIMNXDhlYq-1">
          <mxGeometry x="100" y="260" width="510" height="440" as="geometry" />
        </mxCell>
        <mxCell id="pSG9ePYmPneIMNXDhlYq-8" value="&lt;font style=&quot;font-size: 18px;&quot;&gt;&lt;b&gt;Welcome!&lt;/b&gt;&lt;/font&gt;" style="text;html=1;align=center;verticalAlign=middle;whiteSpace=wrap;rounded=0;strokeColor=#000000;" vertex="1" parent="pSG9ePYmPneIMNXDhlYq-1">
          <mxGeometry x="110" y="270" width="300" height="30" as="geometry" />
        </mxCell>
        <mxCell id="pSG9ePYmPneIMNXDhlYq-9" value="alt: photo of me" style="rounded=0;whiteSpace=wrap;html=1;" vertex="1" parent="pSG9ePYmPneIMNXDhlYq-1">
          <mxGeometry x="410" y="270" width="190" height="200" as="geometry" />
        </mxCell>
        <mxCell id="pSG9ePYmPneIMNXDhlYq-10" value="&lt;font style=&quot;font-size: 12px;&quot;&gt;{{about_me}}&lt;/font&gt;" style="text;html=1;align=center;verticalAlign=middle;whiteSpace=wrap;rounded=0;shadow=0;strokeColor=#000000;" vertex="1" parent="pSG9ePYmPneIMNXDhlYq-1">
          <mxGeometry x="110" y="300" width="300" height="170" as="geometry" />
        </mxCell>
      </root>
    </mxGraphModel>
  </diagram>
  <diagram name="home-logged-in-admin" id="QCtQNewX7_ZVSJ8-Sd5a">
    <mxGraphModel dx="1674" dy="799" grid="1" gridSize="10" guides="1" tooltips="1" connect="1" arrows="1" fold="1" page="1" pageScale="1" pageWidth="850" pageHeight="1100" math="0" shadow="0">
      <root>
        <mxCell id="_2VA7KsF3N3Y7zHIVpqm-0" />
        <mxCell id="_2VA7KsF3N3Y7zHIVpqm-1" parent="_2VA7KsF3N3Y7zHIVpqm-0" />
        <mxCell id="_2VA7KsF3N3Y7zHIVpqm-2" value="&lt;font style=&quot;font-size: 16px;&quot;&gt;Portfolio&lt;/font&gt;" style="rounded=0;whiteSpace=wrap;html=1;" vertex="1" parent="_2VA7KsF3N3Y7zHIVpqm-1">
          <mxGeometry x="100" y="220" width="80" height="40" as="geometry" />
        </mxCell>
        <mxCell id="_2VA7KsF3N3Y7zHIVpqm-3" value="&lt;font style=&quot;font-size: 14px;&quot;&gt;Home&lt;/font&gt;" style="rounded=0;whiteSpace=wrap;html=1;" vertex="1" parent="_2VA7KsF3N3Y7zHIVpqm-1">
          <mxGeometry x="180" y="220" width="80" height="40" as="geometry" />
        </mxCell>
        <mxCell id="_2VA7KsF3N3Y7zHIVpqm-4" value="&lt;font style=&quot;font-size: 14px;&quot;&gt;Privacy&lt;/font&gt;" style="rounded=0;whiteSpace=wrap;html=1;" vertex="1" parent="_2VA7KsF3N3Y7zHIVpqm-1">
          <mxGeometry x="260" y="220" width="80" height="40" as="geometry" />
        </mxCell>
        <mxCell id="_2VA7KsF3N3Y7zHIVpqm-5" value="" style="rounded=0;whiteSpace=wrap;html=1;" vertex="1" parent="_2VA7KsF3N3Y7zHIVpqm-1">
          <mxGeometry x="340" y="220" width="190" height="40" as="geometry" />
        </mxCell>
        <mxCell id="_2VA7KsF3N3Y7zHIVpqm-6" value="&lt;font style=&quot;font-size: 14px;&quot;&gt;Log Out&lt;/font&gt;" style="rounded=0;whiteSpace=wrap;html=1;" vertex="1" parent="_2VA7KsF3N3Y7zHIVpqm-1">
          <mxGeometry x="530" y="220" width="80" height="40" as="geometry" />
        </mxCell>
        <mxCell id="_2VA7KsF3N3Y7zHIVpqm-7" value="" style="rounded=0;whiteSpace=wrap;html=1;" vertex="1" parent="_2VA7KsF3N3Y7zHIVpqm-1">
          <mxGeometry x="100" y="260" width="510" height="440" as="geometry" />
        </mxCell>
        <mxCell id="_2VA7KsF3N3Y7zHIVpqm-8" value="&lt;font style=&quot;font-size: 18px;&quot;&gt;&lt;b&gt;Welcome!&lt;/b&gt;&lt;/font&gt;" style="text;html=1;align=center;verticalAlign=middle;whiteSpace=wrap;rounded=0;strokeColor=#000000;" vertex="1" parent="_2VA7KsF3N3Y7zHIVpqm-1">
          <mxGeometry x="110" y="270" width="300" height="30" as="geometry" />
        </mxCell>
        <mxCell id="_2VA7KsF3N3Y7zHIVpqm-9" value="alt: photo of me" style="rounded=0;whiteSpace=wrap;html=1;" vertex="1" parent="_2VA7KsF3N3Y7zHIVpqm-1">
          <mxGeometry x="410" y="270" width="190" height="200" as="geometry" />
        </mxCell>
        <mxCell id="_2VA7KsF3N3Y7zHIVpqm-10" value="&lt;font style=&quot;font-size: 12px;&quot;&gt;{{about_me}}&lt;/font&gt;" style="text;html=1;align=center;verticalAlign=middle;whiteSpace=wrap;rounded=0;shadow=0;strokeColor=#000000;" vertex="1" parent="_2VA7KsF3N3Y7zHIVpqm-1">
          <mxGeometry x="110" y="300" width="300" height="170" as="geometry" />
        </mxCell>
        <mxCell id="ESkImviqRP5EEoijIGkj-0" value="edit" style="whiteSpace=wrap;html=1;aspect=fixed;" vertex="1" parent="_2VA7KsF3N3Y7zHIVpqm-1">
          <mxGeometry x="380" y="310" width="20" height="20" as="geometry" />
        </mxCell>
        <mxCell id="ESkImviqRP5EEoijIGkj-2" value="edit" style="whiteSpace=wrap;html=1;aspect=fixed;" vertex="1" parent="_2VA7KsF3N3Y7zHIVpqm-1">
          <mxGeometry x="570" y="275" width="20" height="20" as="geometry" />
        </mxCell>
      </root>
    </mxGraphModel>
  </diagram>
  <diagram id="qL0MGOLbXfqLSHw6jHzR" name="login">
    <mxGraphModel dx="1674" dy="799" grid="1" gridSize="10" guides="1" tooltips="1" connect="1" arrows="1" fold="1" page="1" pageScale="1" pageWidth="850" pageHeight="1100" math="0" shadow="0">
      <root>
        <mxCell id="0" />
        <mxCell id="1" parent="0" />
        <mxCell id="756bHtzZnPIkwXYs3Xoc-1" value="&lt;font style=&quot;font-size: 16px;&quot;&gt;Portfolio&lt;/font&gt;" style="rounded=0;whiteSpace=wrap;html=1;" vertex="1" parent="1">
          <mxGeometry x="100" y="220" width="80" height="40" as="geometry" />
        </mxCell>
        <mxCell id="756bHtzZnPIkwXYs3Xoc-2" value="&lt;font style=&quot;font-size: 14px;&quot;&gt;Home&lt;/font&gt;" style="rounded=0;whiteSpace=wrap;html=1;" vertex="1" parent="1">
          <mxGeometry x="180" y="220" width="80" height="40" as="geometry" />
        </mxCell>
        <mxCell id="756bHtzZnPIkwXYs3Xoc-3" value="&lt;font style=&quot;font-size: 14px;&quot;&gt;Privacy&lt;/font&gt;" style="rounded=0;whiteSpace=wrap;html=1;" vertex="1" parent="1">
          <mxGeometry x="260" y="220" width="80" height="40" as="geometry" />
        </mxCell>
        <mxCell id="756bHtzZnPIkwXYs3Xoc-4" value="" style="rounded=0;whiteSpace=wrap;html=1;" vertex="1" parent="1">
          <mxGeometry x="340" y="220" width="190" height="40" as="geometry" />
        </mxCell>
        <mxCell id="756bHtzZnPIkwXYs3Xoc-5" value="&lt;font style=&quot;font-size: 14px;&quot;&gt;Log In&lt;/font&gt;" style="rounded=0;whiteSpace=wrap;html=1;" vertex="1" parent="1">
          <mxGeometry x="530" y="220" width="80" height="40" as="geometry" />
        </mxCell>
        <mxCell id="756bHtzZnPIkwXYs3Xoc-6" value="" style="rounded=0;whiteSpace=wrap;html=1;" vertex="1" parent="1">
          <mxGeometry x="100" y="260" width="510" height="440" as="geometry" />
        </mxCell>
        <mxCell id="756bHtzZnPIkwXYs3Xoc-7" value="&lt;font style=&quot;font-size: 18px;&quot;&gt;&lt;b&gt;Log In&lt;/b&gt;&lt;/font&gt;" style="text;html=1;align=center;verticalAlign=middle;whiteSpace=wrap;rounded=0;strokeColor=#000000;" vertex="1" parent="1">
          <mxGeometry x="110" y="270" width="490" height="30" as="geometry" />
        </mxCell>
        <mxCell id="756bHtzZnPIkwXYs3Xoc-10" value="&lt;font style=&quot;font-size: 14px;&quot;&gt;*Email&lt;/font&gt;" style="text;html=1;align=center;verticalAlign=middle;whiteSpace=wrap;rounded=0;strokeColor=#000000;" vertex="1" parent="1">
          <mxGeometry x="110" y="300" width="190" height="30" as="geometry" />
        </mxCell>
        <mxCell id="756bHtzZnPIkwXYs3Xoc-11" value="&lt;font color=&quot;#333333&quot; style=&quot;font-size: 14px;&quot;&gt;&amp;nbsp;example@hicksm.dev&lt;/font&gt;" style="text;html=1;align=left;verticalAlign=middle;whiteSpace=wrap;rounded=0;strokeColor=#000000;" vertex="1" parent="1">
          <mxGeometry x="300" y="300" width="300" height="30" as="geometry" />
        </mxCell>
        <mxCell id="756bHtzZnPIkwXYs3Xoc-12" value="&lt;font style=&quot;font-size: 14px;&quot;&gt;Password&lt;/font&gt;" style="text;html=1;align=center;verticalAlign=middle;whiteSpace=wrap;rounded=0;strokeColor=#000000;" vertex="1" parent="1">
          <mxGeometry x="110" y="330" width="190" height="30" as="geometry" />
        </mxCell>
        <mxCell id="756bHtzZnPIkwXYs3Xoc-13" value="" style="text;html=1;align=left;verticalAlign=middle;whiteSpace=wrap;rounded=0;strokeColor=#000000;" vertex="1" parent="1">
          <mxGeometry x="300" y="330" width="300" height="30" as="geometry" />
        </mxCell>
        <mxCell id="756bHtzZnPIkwXYs3Xoc-14" value="&lt;font style=&quot;font-size: 14px;&quot;&gt;Log In&lt;/font&gt;" style="rounded=0;whiteSpace=wrap;html=1;" vertex="1" parent="1">
          <mxGeometry x="315" y="420" width="80" height="40" as="geometry" />
        </mxCell>
        <mxCell id="756bHtzZnPIkwXYs3Xoc-15" value="&lt;font style=&quot;font-size: 10px;&quot;&gt;*Indicates a required field.&lt;/font&gt;" style="text;html=1;align=left;verticalAlign=middle;whiteSpace=wrap;rounded=0;strokeColor=#000000;" vertex="1" parent="1">
          <mxGeometry x="110" y="360" width="490" height="30" as="geometry" />
        </mxCell>
        <mxCell id="hvvhEY7vAsBN9mN3-jSg-1" value="&lt;font style=&quot;font-size: 14px;&quot;&gt;Sign Up&lt;/font&gt;" style="rounded=0;whiteSpace=wrap;html=1;" vertex="1" parent="1">
          <mxGeometry x="520" y="420" width="80" height="40" as="geometry" />
        </mxCell>
      </root>
    </mxGraphModel>
  </diagram>
  <diagram name="signup" id="qKxquHly8F7Rn1yt60Ko">
    <mxGraphModel dx="1674" dy="799" grid="1" gridSize="10" guides="1" tooltips="1" connect="1" arrows="1" fold="1" page="1" pageScale="1" pageWidth="850" pageHeight="1100" math="0" shadow="0">
      <root>
        <mxCell id="Bj8r-6jFM2Cz0E-PO7oM-0" />
        <mxCell id="Bj8r-6jFM2Cz0E-PO7oM-1" parent="Bj8r-6jFM2Cz0E-PO7oM-0" />
        <mxCell id="Bj8r-6jFM2Cz0E-PO7oM-2" value="&lt;font style=&quot;font-size: 16px;&quot;&gt;Portfolio&lt;/font&gt;" style="rounded=0;whiteSpace=wrap;html=1;" vertex="1" parent="Bj8r-6jFM2Cz0E-PO7oM-1">
          <mxGeometry x="100" y="220" width="80" height="40" as="geometry" />
        </mxCell>
        <mxCell id="Bj8r-6jFM2Cz0E-PO7oM-3" value="&lt;font style=&quot;font-size: 14px;&quot;&gt;Home&lt;/font&gt;" style="rounded=0;whiteSpace=wrap;html=1;" vertex="1" parent="Bj8r-6jFM2Cz0E-PO7oM-1">
          <mxGeometry x="180" y="220" width="80" height="40" as="geometry" />
        </mxCell>
        <mxCell id="Bj8r-6jFM2Cz0E-PO7oM-4" value="&lt;font style=&quot;font-size: 14px;&quot;&gt;Privacy&lt;/font&gt;" style="rounded=0;whiteSpace=wrap;html=1;" vertex="1" parent="Bj8r-6jFM2Cz0E-PO7oM-1">
          <mxGeometry x="260" y="220" width="80" height="40" as="geometry" />
        </mxCell>
        <mxCell id="Bj8r-6jFM2Cz0E-PO7oM-5" value="" style="rounded=0;whiteSpace=wrap;html=1;" vertex="1" parent="Bj8r-6jFM2Cz0E-PO7oM-1">
          <mxGeometry x="340" y="220" width="190" height="40" as="geometry" />
        </mxCell>
        <mxCell id="Bj8r-6jFM2Cz0E-PO7oM-6" value="&lt;font style=&quot;font-size: 14px;&quot;&gt;Log In&lt;/font&gt;" style="rounded=0;whiteSpace=wrap;html=1;" vertex="1" parent="Bj8r-6jFM2Cz0E-PO7oM-1">
          <mxGeometry x="530" y="220" width="80" height="40" as="geometry" />
        </mxCell>
        <mxCell id="Bj8r-6jFM2Cz0E-PO7oM-7" value="" style="rounded=0;whiteSpace=wrap;html=1;" vertex="1" parent="Bj8r-6jFM2Cz0E-PO7oM-1">
          <mxGeometry x="100" y="260" width="510" height="440" as="geometry" />
        </mxCell>
        <mxCell id="Bj8r-6jFM2Cz0E-PO7oM-8" value="&lt;font style=&quot;font-size: 18px;&quot;&gt;&lt;b&gt;Sign Up&lt;/b&gt;&lt;/font&gt;" style="text;html=1;align=center;verticalAlign=middle;whiteSpace=wrap;rounded=0;strokeColor=#000000;" vertex="1" parent="Bj8r-6jFM2Cz0E-PO7oM-1">
          <mxGeometry x="110" y="270" width="490" height="30" as="geometry" />
        </mxCell>
        <mxCell id="Bj8r-6jFM2Cz0E-PO7oM-9" value="&lt;font style=&quot;font-size: 14px;&quot;&gt;*Email&lt;/font&gt;" style="text;html=1;align=center;verticalAlign=middle;whiteSpace=wrap;rounded=0;strokeColor=#000000;" vertex="1" parent="Bj8r-6jFM2Cz0E-PO7oM-1">
          <mxGeometry x="110" y="300" width="190" height="30" as="geometry" />
        </mxCell>
        <mxCell id="Bj8r-6jFM2Cz0E-PO7oM-10" value="&lt;font color=&quot;#333333&quot; style=&quot;font-size: 14px;&quot;&gt;&amp;nbsp;example@hicksm.dev&lt;/font&gt;" style="text;html=1;align=left;verticalAlign=middle;whiteSpace=wrap;rounded=0;strokeColor=#000000;" vertex="1" parent="Bj8r-6jFM2Cz0E-PO7oM-1">
          <mxGeometry x="300" y="300" width="300" height="30" as="geometry" />
        </mxCell>
        <mxCell id="Bj8r-6jFM2Cz0E-PO7oM-11" value="&lt;font style=&quot;font-size: 14px;&quot;&gt;*Name&lt;/font&gt;" style="text;html=1;align=center;verticalAlign=middle;whiteSpace=wrap;rounded=0;strokeColor=#000000;" vertex="1" parent="Bj8r-6jFM2Cz0E-PO7oM-1">
          <mxGeometry x="110" y="330" width="190" height="30" as="geometry" />
        </mxCell>
        <mxCell id="Bj8r-6jFM2Cz0E-PO7oM-12" value="&amp;nbsp;&lt;font color=&quot;#333333&quot;&gt;Mason&lt;/font&gt;" style="text;html=1;align=left;verticalAlign=middle;whiteSpace=wrap;rounded=0;strokeColor=#000000;" vertex="1" parent="Bj8r-6jFM2Cz0E-PO7oM-1">
          <mxGeometry x="300" y="330" width="300" height="30" as="geometry" />
        </mxCell>
        <mxCell id="Bj8r-6jFM2Cz0E-PO7oM-13" value="&lt;font style=&quot;font-size: 14px;&quot;&gt;Sign Up&lt;/font&gt;" style="rounded=0;whiteSpace=wrap;html=1;" vertex="1" parent="Bj8r-6jFM2Cz0E-PO7oM-1">
          <mxGeometry x="315" y="480" width="80" height="40" as="geometry" />
        </mxCell>
        <mxCell id="Bj8r-6jFM2Cz0E-PO7oM-14" value="&lt;font style=&quot;font-size: 10px;&quot;&gt;*Indicates a required field.&lt;/font&gt;" style="text;html=1;align=left;verticalAlign=middle;whiteSpace=wrap;rounded=0;strokeColor=#000000;" vertex="1" parent="Bj8r-6jFM2Cz0E-PO7oM-1">
          <mxGeometry x="110" y="420" width="490" height="30" as="geometry" />
        </mxCell>
        <mxCell id="PxJoXCA-tR1X4hVzPaW8-0" value="&lt;font style=&quot;font-size: 14px;&quot;&gt;Password&lt;/font&gt;" style="text;html=1;align=center;verticalAlign=middle;whiteSpace=wrap;rounded=0;strokeColor=#000000;" vertex="1" parent="Bj8r-6jFM2Cz0E-PO7oM-1">
          <mxGeometry x="110" y="390" width="190" height="30" as="geometry" />
        </mxCell>
        <mxCell id="PxJoXCA-tR1X4hVzPaW8-1" value="" style="text;html=1;align=left;verticalAlign=middle;whiteSpace=wrap;rounded=0;strokeColor=#000000;" vertex="1" parent="Bj8r-6jFM2Cz0E-PO7oM-1">
          <mxGeometry x="300" y="390" width="300" height="30" as="geometry" />
        </mxCell>
        <mxCell id="PxJoXCA-tR1X4hVzPaW8-2" value="&lt;font style=&quot;font-size: 14px;&quot;&gt;Website&lt;/font&gt;" style="text;html=1;align=center;verticalAlign=middle;whiteSpace=wrap;rounded=0;strokeColor=#000000;" vertex="1" parent="Bj8r-6jFM2Cz0E-PO7oM-1">
          <mxGeometry x="110" y="360" width="190" height="30" as="geometry" />
        </mxCell>
        <mxCell id="PxJoXCA-tR1X4hVzPaW8-3" value="&amp;nbsp;&lt;font color=&quot;#333333&quot;&gt;https://www.linkedin.com/in/mwhicks&lt;/font&gt;" style="text;html=1;align=left;verticalAlign=middle;whiteSpace=wrap;rounded=0;strokeColor=#000000;" vertex="1" parent="Bj8r-6jFM2Cz0E-PO7oM-1">
          <mxGeometry x="300" y="360" width="300" height="30" as="geometry" />
        </mxCell>
      </root>
    </mxGraphModel>
  </diagram>
  <diagram name="privacy-logged-out" id="B35B8G4fTAVCA1Y2gxYa">
    <mxGraphModel dx="1674" dy="799" grid="1" gridSize="10" guides="1" tooltips="1" connect="1" arrows="1" fold="1" page="1" pageScale="1" pageWidth="850" pageHeight="1100" math="0" shadow="0">
      <root>
        <mxCell id="iMJqfX0RSiVyjVS2JO4O-0" />
        <mxCell id="iMJqfX0RSiVyjVS2JO4O-1" parent="iMJqfX0RSiVyjVS2JO4O-0" />
        <mxCell id="iMJqfX0RSiVyjVS2JO4O-2" value="&lt;font style=&quot;font-size: 16px;&quot;&gt;Portfolio&lt;/font&gt;" style="rounded=0;whiteSpace=wrap;html=1;" vertex="1" parent="iMJqfX0RSiVyjVS2JO4O-1">
          <mxGeometry x="100" y="220" width="80" height="40" as="geometry" />
        </mxCell>
        <mxCell id="iMJqfX0RSiVyjVS2JO4O-3" value="&lt;font style=&quot;font-size: 14px;&quot;&gt;Home&lt;/font&gt;" style="rounded=0;whiteSpace=wrap;html=1;" vertex="1" parent="iMJqfX0RSiVyjVS2JO4O-1">
          <mxGeometry x="180" y="220" width="80" height="40" as="geometry" />
        </mxCell>
        <mxCell id="iMJqfX0RSiVyjVS2JO4O-4" value="&lt;font style=&quot;font-size: 14px;&quot;&gt;Privacy&lt;/font&gt;" style="rounded=0;whiteSpace=wrap;html=1;" vertex="1" parent="iMJqfX0RSiVyjVS2JO4O-1">
          <mxGeometry x="260" y="220" width="80" height="40" as="geometry" />
        </mxCell>
        <mxCell id="iMJqfX0RSiVyjVS2JO4O-5" value="" style="rounded=0;whiteSpace=wrap;html=1;" vertex="1" parent="iMJqfX0RSiVyjVS2JO4O-1">
          <mxGeometry x="340" y="220" width="190" height="40" as="geometry" />
        </mxCell>
        <mxCell id="iMJqfX0RSiVyjVS2JO4O-6" value="&lt;font style=&quot;font-size: 14px;&quot;&gt;Log In&lt;/font&gt;" style="rounded=0;whiteSpace=wrap;html=1;" vertex="1" parent="iMJqfX0RSiVyjVS2JO4O-1">
          <mxGeometry x="530" y="220" width="80" height="40" as="geometry" />
        </mxCell>
        <mxCell id="iMJqfX0RSiVyjVS2JO4O-7" value="" style="rounded=0;whiteSpace=wrap;html=1;" vertex="1" parent="iMJqfX0RSiVyjVS2JO4O-1">
          <mxGeometry x="100" y="260" width="510" height="440" as="geometry" />
        </mxCell>
        <mxCell id="iMJqfX0RSiVyjVS2JO4O-8" value="&lt;font style=&quot;font-size: 18px;&quot;&gt;&lt;b&gt;Privacy Policy&lt;/b&gt;&lt;/font&gt;" style="text;html=1;align=center;verticalAlign=middle;whiteSpace=wrap;rounded=0;strokeColor=#000000;" vertex="1" parent="iMJqfX0RSiVyjVS2JO4O-1">
          <mxGeometry x="110" y="270" width="490" height="30" as="geometry" />
        </mxCell>
        <mxCell id="4sqvvQw5SoAvPpuV085o-0" value="&lt;font style=&quot;font-size: 12px;&quot;&gt;&lt;span style=&quot;font-weight: normal;&quot;&gt;{{privacy_policy}}&lt;/span&gt;&lt;/font&gt;" style="text;html=1;align=center;verticalAlign=middle;whiteSpace=wrap;rounded=0;strokeColor=#000000;fontStyle=1" vertex="1" parent="iMJqfX0RSiVyjVS2JO4O-1">
          <mxGeometry x="110" y="300" width="490" height="180" as="geometry" />
        </mxCell>
      </root>
    </mxGraphModel>
  </diagram>
  <diagram name="privacy-logged-in" id="ITfJneyfeSpCKuF0o8G6">
    <mxGraphModel dx="1674" dy="799" grid="1" gridSize="10" guides="1" tooltips="1" connect="1" arrows="1" fold="1" page="1" pageScale="1" pageWidth="850" pageHeight="1100" math="0" shadow="0">
      <root>
        <mxCell id="wI7EAU6f5Rstm70SJ4KJ-0" />
        <mxCell id="wI7EAU6f5Rstm70SJ4KJ-1" parent="wI7EAU6f5Rstm70SJ4KJ-0" />
        <mxCell id="wI7EAU6f5Rstm70SJ4KJ-2" value="&lt;font style=&quot;font-size: 16px;&quot;&gt;Portfolio&lt;/font&gt;" style="rounded=0;whiteSpace=wrap;html=1;" vertex="1" parent="wI7EAU6f5Rstm70SJ4KJ-1">
          <mxGeometry x="100" y="220" width="80" height="40" as="geometry" />
        </mxCell>
        <mxCell id="wI7EAU6f5Rstm70SJ4KJ-3" value="&lt;font style=&quot;font-size: 14px;&quot;&gt;Home&lt;/font&gt;" style="rounded=0;whiteSpace=wrap;html=1;" vertex="1" parent="wI7EAU6f5Rstm70SJ4KJ-1">
          <mxGeometry x="180" y="220" width="80" height="40" as="geometry" />
        </mxCell>
        <mxCell id="wI7EAU6f5Rstm70SJ4KJ-4" value="&lt;font style=&quot;font-size: 14px;&quot;&gt;Privacy&lt;/font&gt;" style="rounded=0;whiteSpace=wrap;html=1;" vertex="1" parent="wI7EAU6f5Rstm70SJ4KJ-1">
          <mxGeometry x="260" y="220" width="80" height="40" as="geometry" />
        </mxCell>
        <mxCell id="wI7EAU6f5Rstm70SJ4KJ-5" value="" style="rounded=0;whiteSpace=wrap;html=1;" vertex="1" parent="wI7EAU6f5Rstm70SJ4KJ-1">
          <mxGeometry x="340" y="220" width="190" height="40" as="geometry" />
        </mxCell>
        <mxCell id="wI7EAU6f5Rstm70SJ4KJ-6" value="&lt;font style=&quot;font-size: 14px;&quot;&gt;Log Out&lt;/font&gt;" style="rounded=0;whiteSpace=wrap;html=1;" vertex="1" parent="wI7EAU6f5Rstm70SJ4KJ-1">
          <mxGeometry x="530" y="220" width="80" height="40" as="geometry" />
        </mxCell>
        <mxCell id="wI7EAU6f5Rstm70SJ4KJ-7" value="" style="rounded=0;whiteSpace=wrap;html=1;" vertex="1" parent="wI7EAU6f5Rstm70SJ4KJ-1">
          <mxGeometry x="100" y="260" width="510" height="440" as="geometry" />
        </mxCell>
        <mxCell id="wI7EAU6f5Rstm70SJ4KJ-8" value="&lt;font style=&quot;font-size: 18px;&quot;&gt;&lt;b&gt;Privacy Policy&lt;/b&gt;&lt;/font&gt;" style="text;html=1;align=center;verticalAlign=middle;whiteSpace=wrap;rounded=0;strokeColor=#000000;" vertex="1" parent="wI7EAU6f5Rstm70SJ4KJ-1">
          <mxGeometry x="110" y="270" width="490" height="30" as="geometry" />
        </mxCell>
        <mxCell id="wI7EAU6f5Rstm70SJ4KJ-9" value="&lt;font style=&quot;font-size: 12px;&quot;&gt;&lt;span style=&quot;font-weight: normal;&quot;&gt;{{privacy_policy}}&lt;/span&gt;&lt;/font&gt;" style="text;html=1;align=center;verticalAlign=middle;whiteSpace=wrap;rounded=0;strokeColor=#000000;fontStyle=1" vertex="1" parent="wI7EAU6f5Rstm70SJ4KJ-1">
          <mxGeometry x="110" y="300" width="490" height="180" as="geometry" />
        </mxCell>
      </root>
    </mxGraphModel>
  </diagram>
  <diagram name="privacy-logged-in-admin" id="YoaK2h3HIuit7fWDjhc-">
    <mxGraphModel dx="1674" dy="799" grid="1" gridSize="10" guides="1" tooltips="1" connect="1" arrows="1" fold="1" page="1" pageScale="1" pageWidth="850" pageHeight="1100" math="0" shadow="0">
      <root>
        <mxCell id="LsOnWM6OFhJunKf_DriG-0" />
        <mxCell id="LsOnWM6OFhJunKf_DriG-1" parent="LsOnWM6OFhJunKf_DriG-0" />
        <mxCell id="LsOnWM6OFhJunKf_DriG-2" value="&lt;font style=&quot;font-size: 16px;&quot;&gt;Portfolio&lt;/font&gt;" style="rounded=0;whiteSpace=wrap;html=1;" vertex="1" parent="LsOnWM6OFhJunKf_DriG-1">
          <mxGeometry x="100" y="220" width="80" height="40" as="geometry" />
        </mxCell>
        <mxCell id="LsOnWM6OFhJunKf_DriG-3" value="&lt;font style=&quot;font-size: 14px;&quot;&gt;Home&lt;/font&gt;" style="rounded=0;whiteSpace=wrap;html=1;" vertex="1" parent="LsOnWM6OFhJunKf_DriG-1">
          <mxGeometry x="180" y="220" width="80" height="40" as="geometry" />
        </mxCell>
        <mxCell id="LsOnWM6OFhJunKf_DriG-4" value="&lt;font style=&quot;font-size: 14px;&quot;&gt;Privacy&lt;/font&gt;" style="rounded=0;whiteSpace=wrap;html=1;" vertex="1" parent="LsOnWM6OFhJunKf_DriG-1">
          <mxGeometry x="260" y="220" width="80" height="40" as="geometry" />
        </mxCell>
        <mxCell id="LsOnWM6OFhJunKf_DriG-5" value="" style="rounded=0;whiteSpace=wrap;html=1;" vertex="1" parent="LsOnWM6OFhJunKf_DriG-1">
          <mxGeometry x="340" y="220" width="190" height="40" as="geometry" />
        </mxCell>
        <mxCell id="LsOnWM6OFhJunKf_DriG-6" value="&lt;font style=&quot;font-size: 14px;&quot;&gt;Log Out&lt;/font&gt;" style="rounded=0;whiteSpace=wrap;html=1;" vertex="1" parent="LsOnWM6OFhJunKf_DriG-1">
          <mxGeometry x="530" y="220" width="80" height="40" as="geometry" />
        </mxCell>
        <mxCell id="LsOnWM6OFhJunKf_DriG-7" value="" style="rounded=0;whiteSpace=wrap;html=1;" vertex="1" parent="LsOnWM6OFhJunKf_DriG-1">
          <mxGeometry x="100" y="260" width="510" height="440" as="geometry" />
        </mxCell>
        <mxCell id="LsOnWM6OFhJunKf_DriG-8" value="&lt;font style=&quot;font-size: 18px;&quot;&gt;&lt;b&gt;Privacy Policy&lt;/b&gt;&lt;/font&gt;" style="text;html=1;align=center;verticalAlign=middle;whiteSpace=wrap;rounded=0;strokeColor=#000000;" vertex="1" parent="LsOnWM6OFhJunKf_DriG-1">
          <mxGeometry x="110" y="270" width="490" height="30" as="geometry" />
        </mxCell>
        <mxCell id="LsOnWM6OFhJunKf_DriG-9" value="&lt;font style=&quot;font-size: 12px;&quot;&gt;&lt;span style=&quot;font-weight: normal;&quot;&gt;{{privacy_policy}}&lt;/span&gt;&lt;/font&gt;" style="text;html=1;align=center;verticalAlign=middle;whiteSpace=wrap;rounded=0;strokeColor=#000000;fontStyle=1" vertex="1" parent="LsOnWM6OFhJunKf_DriG-1">
          <mxGeometry x="110" y="300" width="490" height="180" as="geometry" />
        </mxCell>
        <mxCell id="SRO-KUR61doOId3U_Tgx-0" value="edit" style="whiteSpace=wrap;html=1;aspect=fixed;" vertex="1" parent="LsOnWM6OFhJunKf_DriG-1">
          <mxGeometry x="570" y="310" width="20" height="20" as="geometry" />
        </mxCell>
      </root>
    </mxGraphModel>
  </diagram>
</mxfile>
